<?xml version="1.0" encoding="UTF-8" standalone="no"?>
<!-- Created with Inkscape (http://www.inkscape.org/) -->

<svg
   xmlns:dc="http://purl.org/dc/elements/1.1/"
   xmlns:cc="http://creativecommons.org/ns#"
   xmlns:rdf="http://www.w3.org/1999/02/22-rdf-syntax-ns#"
   xmlns:svg="http://www.w3.org/2000/svg"
   xmlns="http://www.w3.org/2000/svg"
   xmlns:sodipodi="http://sodipodi.sourceforge.net/DTD/sodipodi-0.dtd"
   xmlns:inkscape="http://www.inkscape.org/namespaces/inkscape"
   id="svg2"
   version="1.1"
   inkscape:version="0.48.1 "
   width="437.5"
   height="500"
   xml:space="preserve"
   sodipodi:docname="VZLOGO.svg"><metadata
     id="metadata8"><rdf:RDF><cc:Work
         rdf:about=""><dc:format>image/svg+xml</dc:format><dc:type
           rdf:resource="http://purl.org/dc/dcmitype/StillImage" /><dc:title></dc:title></cc:Work></rdf:RDF></metadata><defs
     id="defs6" /><sodipodi:namedview
     pagecolor="#ffffff"
     bordercolor="#666666"
     borderopacity="1"
     objecttolerance="10"
     gridtolerance="10"
     guidetolerance="10"
     inkscape:pageopacity="0"
     inkscape:pageshadow="2"
     inkscape:window-width="1280"
     inkscape:window-height="893"
     id="namedview4"
     showgrid="false"
     inkscape:zoom="1.157875"
     inkscape:cx="218.75"
     inkscape:cy="250"
     inkscape:window-x="0"
     inkscape:window-y="0"
     inkscape:window-maximized="1"
     inkscape:current-layer="g10" /><g
     id="g10"
     inkscape:groupmode="layer"
     inkscape:label="VZLOGO"
     transform="matrix(1.25,0,0,-1.25,0,500)"><path
       d="m 49.848,357.827 c 0.415,-1.795 0.829,-3.589 1.025,-5.156 0.196,-1.567 0.173,-2.907 -0.746,-4.679 -0.919,-1.772 -2.734,-3.975 -5.434,-5.939 -2.7,-1.965 -6.285,-3.691 -11.422,-5.168 -5.137,-1.476 -11.825,-2.703 -12.644,-24.917 -0.818,-22.215 4.233,-65.418 9.227,-98.79 4.995,-33.372 9.932,-56.913 23.902,-78.597 13.971,-21.685 36.973,-41.512 50.763,-54.145 13.789,-12.634 18.365,-18.073 20.636,-21.798 2.271,-3.725 2.237,-5.735 10.98,-9.018 8.744,-3.283 26.265,-7.839 35.025,-10.117 l 8.761,-2.277 M 300.994,357.29 c -0.444,-1.791 -0.887,-3.582 -1.107,-5.148 -0.22,-1.566 -0.215,-2.908 0.691,-4.695 0.905,-1.786 2.712,-4.016 5.417,-6.02 2.706,-2.004 6.31,-3.781 11.488,-5.329 5.177,-1.549 11.928,-2.868 12.454,-25.12 0.526,-22.253 -5.174,-65.439 -10.682,-98.783 -5.509,-33.344 -10.826,-56.847 -25.258,-78.367 C 279.566,112.308 256.019,92.77 241.894,80.309 227.769,67.848 223.065,62.464 220.716,58.766 c -2.349,-3.698 -2.342,-5.711 -9.002,-8.891 -6.66,-3.18 -19.987,-7.528 -26.65,-9.701 L 178.4,38 M 50,357.5 l 250.162,0"
       style="fill:none;stroke:#000000;stroke-opacity:1;stroke-width:1;stroke-linecap:butt;stroke-linejoin:miter;stroke-miterlimit:10;stroke-dasharray:none"
       id="path12" /><path
       d="m 63.999,323.2 228.231,0 -86.415,-86.415 70.385,0 L 121.6,87.2"
       style="fill:none;stroke:#000000;stroke-opacity:1;stroke-width:1.2;stroke-linecap:butt;stroke-linejoin:miter;stroke-miterlimit:10;stroke-dasharray:none"
       id="path14" /><path
       d="m 108.875,305.8 125.85,0"
       style="fill:none;stroke:#000000;stroke-opacity:1;stroke-width:1.2;stroke-linecap:butt;stroke-linejoin:miter;stroke-miterlimit:10;stroke-dasharray:none"
       id="path16" /><path
       d="M 233.4,304.8 148.6,220 233.415,220 121.4,119.2 l 0,185.6"
       style="fill:none;stroke:#000000;stroke-opacity:1;stroke-width:1.2;stroke-linecap:butt;stroke-linejoin:miter;stroke-miterlimit:10;stroke-dasharray:none"
       id="path18" /><path
       d="m 113.4,306.639 0,-195.323"
       style="fill:none;stroke:#000000;stroke-opacity:1;stroke-width:1.2;stroke-linecap:butt;stroke-linejoin:miter;stroke-miterlimit:10;stroke-dasharray:none"
       id="path20" /><path
       d="m 113.333,111 8,8"
       style="fill:none;stroke:#000000;stroke-opacity:1;stroke-width:1.2;stroke-linecap:butt;stroke-linejoin:miter;stroke-miterlimit:10;stroke-dasharray:none"
       id="path22" /></g></svg>